<svg xmlns="http://www.w3.org/2000/svg" viewBox="0 0 840 52" width="100%">
  <defs><clipPath id="sClip"><rect width="840" height="52" rx="6"/></clipPath></defs>
  <g clip-path="url(#sClip)">
    <rect width="840" height="52" fill="#0a0e17" stroke="#1e293b" stroke-width="1" rx="6"/>
    <text x="20" y="22" font-family="JetBrains Mono,Fira Code,monospace" font-size="16" fill="#e2e8f0" font-weight="bold">19</text>
    <text x="20" y="38" font-family="JetBrains Mono,Fira Code,monospace" font-size="8" fill="#475569">REPOS</text>
    <text x="80" y="22" font-family="JetBrains Mono,Fira Code,monospace" font-size="16" fill="#f59e0b" font-weight="bold">0</text>
    <text x="80" y="38" font-family="JetBrains Mono,Fira Code,monospace" font-size="8" fill="#475569">STARS</text>
    <line x1="140" y1="8" x2="140" y2="44" stroke="#1e293b" stroke-width="1"/>
    <text x="160" y="26" font-family="JetBrains Mono,Fira Code,monospace" font-size="9" fill="#475569">LANGUAGES &#9654;</text>
    <rect x="250" y="15" width="280" height="8" fill="#1e293b" rx="4"/>
    <rect x="250.0" y="15" width="206.3" height="8" fill="#3572A5"/><rect x="456.3" y="15" width="29.5" height="8" fill="#3178c6"/><rect x="485.8" y="15" width="14.7" height="8" fill="#f1e05a"/><rect x="500.5" y="15" width="14.7" height="8" fill="#DA5B0B"/><rect x="515.3" y="15" width="14.7" height="8" fill="#e34c26"/>
    <rect x="250" y="15" width="280" height="8" fill="none" rx="4" stroke="#0a0e17" stroke-width="0.5"/>
    <circle cx="250" cy="38" r="3" fill="#3572A5"/><text x="257" y="41" font-family="JetBrains Mono,Fira Code,monospace" font-size="8" fill="#64748b">Python 73%</text><circle cx="318" cy="38" r="3" fill="#3178c6"/><text x="325" y="41" font-family="JetBrains Mono,Fira Code,monospace" font-size="8" fill="#64748b">TypeScript 10%</text><circle cx="406" cy="38" r="3" fill="#f1e05a"/><text x="413" y="41" font-family="JetBrains Mono,Fira Code,monospace" font-size="8" fill="#64748b">JavaScript 5%</text><circle cx="494" cy="38" r="3" fill="#DA5B0B"/><text x="501" y="41" font-family="JetBrains Mono,Fira Code,monospace" font-size="8" fill="#64748b">Jupyter Notebook 5%</text><circle cx="612" cy="38" r="3" fill="#e34c26"/><text x="619" y="41" font-family="JetBrains Mono,Fira Code,monospace" font-size="8" fill="#64748b">HTML 5%</text>
  </g>
</svg>